<mxfile host="app.diagrams.net" modified="2023-03-29T11:38:32.532Z" agent="Mozilla/5.0 (Macintosh; Intel Mac OS X 10_15_7) AppleWebKit/605.1.15 (KHTML, like Gecko) Version/16.3 Safari/605.1.15" version="21.1.1" etag="BjlJaT8UnzUi60jgp6O6" type="github">
  <diagram name="Page-1" id="_h5sz9PNuNfJPMDAmolC">
    <mxGraphModel>
      <root>
        <mxCell id="0" />
        <mxCell id="1" parent="0" />
      </root>
    </mxGraphModel>
  </diagram>
</mxfile>
